<?xml version="1.0" standalone="no"?>
<!DOCTYPE svg PUBLIC "-//W3C//DTD SVG 20010904//EN"
 "http://www.w3.org/TR/2001/REC-SVG-20010904/DTD/svg10.dtd">
<svg version="1.0" xmlns="http://www.w3.org/2000/svg"
 width="3000.000000pt" height="2000.000000pt" viewBox="0 0 3000.000000 2000.000000"
 preserveAspectRatio="xMidYMid meet">
<metadata>
Created by potrace 1.16, written by Peter Selinger 2001-2019
</metadata>
<g transform="translate(0.000000,2000.000000) scale(0.100000,-0.100000)"
fill="#fff" stroke="none">
<path d="M7241 16198 l-440 -473 0 -520 -1 -520 383 -357 382 -357 1313 0
1312 -1 0 -295 0 -295 -1100 0 -1100 0 0 180 0 180 -595 0 -595 0 0 -650 0
-650 428 0 429 0 148 178 c81 97 150 178 155 180 4 1 83 -78 175 -178 l167
-180 1468 0 1468 0 411 442 411 443 0 500 0 500 -426 403 -427 402 -1283 0
-1284 0 0 300 0 300 990 0 990 0 0 -180 0 -180 600 0 600 0 0 650 0 650 -428
0 -429 0 -148 -177 c-81 -98 -150 -179 -154 -181 -4 -1 -83 79 -175 178 l-168
180 -1318 0 -1318 0 -441 -472z"/>
<path d="M12360 16125 l0 -545 235 0 235 0 0 -1108 0 -1107 463 -463 462 -462
1275 0 1275 0 463 463 462 462 0 1108 0 1107 200 0 200 0 0 545 0 545 -1020 0
-1020 0 0 -545 0 -545 175 0 175 0 0 -1025 0 -1025 -710 0 -710 0 0 1025 0
1025 205 0 205 0 0 545 0 545 -1285 0 -1285 0 0 -545z"/>
<path d="M17940 16125 l0 -545 235 0 235 0 0 -1020 0 -1020 -235 0 -235 0 0
-550 0 -550 1303 2 1302 3 0 545 0 545 -222 3 -223 2 0 285 0 285 1206 0 1206
0 344 336 344 337 0 581 0 581 -376 363 -377 362 -2253 0 -2254 0 0 -545z
m3570 -905 l0 -360 -705 0 -705 0 0 360 0 360 705 0 705 0 0 -360z"/>
<path d="M18492 11598 l-552 -543 1 -1035 0 -1035 552 -542 552 -543 1600 0
1600 1 477 467 478 467 0 428 0 427 -665 0 -665 0 0 -350 0 -350 -1100 0
-1100 0 0 1025 0 1025 1100 0 1100 0 0 -345 0 -345 665 0 665 0 0 890 0 890
-513 0 -512 0 -149 -190 c-83 -104 -151 -190 -153 -190 -1 0 -71 88 -154 195
l-152 195 -1261 0 -1262 0 -552 -542z"/>
<path d="M12360 11585 l0 -545 235 0 235 0 0 -1025 0 -1025 -235 0 -235 0 0
-545 0 -545 1250 0 1250 0 0 545 0 545 -175 0 -175 0 0 350 0 350 480 0 480 0
0 -663 0 -662 233 -233 232 -232 838 0 837 0 0 470 0 470 -195 0 -195 0 0 398
0 397 -305 229 c-169 126 -302 232 -298 236 4 4 142 105 306 224 l297 218 0
445 0 445 -342 349 -343 349 -2087 0 -2088 0 0 -545z m3110 -890 l0 -345 -480
0 -480 0 0 345 0 345 480 0 480 0 0 -345z"/>
<path d="M6800 11575 l0 -545 235 0 235 0 0 -1015 0 -1015 -235 0 -235 0 0
-550 0 -550 2398 1 2397 1 228 253 227 254 0 731 0 730 -660 0 -660 0 0 -440
0 -440 -890 0 -890 0 0 315 0 315 390 0 390 0 0 400 0 400 -390 0 -390 0 0
305 0 305 890 0 890 0 0 -447 0 -446 482 6 c265 4 562 7 660 7 l178 0 0 731 0
730 -227 254 -228 254 -2397 0 -2398 1 0 -545z"/>
<path d="M6800 7030 l0 -550 235 0 235 0 0 -1020 0 -1020 -235 0 -235 0 0
-545 0 -545 2389 0 c1819 0 2390 -3 2393 -12 2 -6 109 104 236 246 l232 256 0
730 0 730 -660 0 -660 0 0 -440 0 -440 -890 0 -890 0 0 325 0 325 390 0 390 0
0 390 0 390 -390 0 -390 0 0 315 0 315 890 0 890 0 0 -440 0 -440 660 0 660 0
0 733 -1 732 -232 258 -232 257 -2392 0 -2393 0 0 -550z"/>
<path d="M12360 7030 l0 -550 235 0 235 0 0 -1020 0 -1020 -235 0 -235 0 0
-550 0 -550 2398 0 2398 0 237 255 237 255 0 975 0 975 -665 0 -665 0 0 -685
0 -685 -895 0 -895 0 0 1025 0 1025 235 0 235 0 0 550 0 550 -1310 0 -1310 0
0 -550z"/>
<path d="M17940 7030 l0 -550 225 0 225 0 0 -1020 0 -1020 -225 0 -225 0 0
-550 0 -550 2393 0 2394 0 236 255 237 254 0 976 0 975 -665 0 -665 0 0 -685
0 -685 -900 0 -900 0 0 1025 0 1025 235 0 235 0 0 550 0 550 -1300 0 -1300 0
0 -550z"/>
</g>
</svg>
